<svg width="49" height="49" viewBox="0 0 49 49" fill="none" xmlns="http://www.w3.org/2000/svg">
<circle cx="25" cy="25" r="23" fill="#E5E5E5"/>
<path fill-rule="evenodd" clip-rule="evenodd" d="M49 24.5C49 38.031 38.031 49 24.5 49C10.969 49 0 38.031 0 24.5C0 10.969 10.969 0 24.5 0C38.031 0 49 10.969 49 24.5ZM30.625 15.3125C30.625 18.6952 27.8827 21.4375 24.5 21.4375C21.1173 21.4375 18.375 18.6952 18.375 15.3125C18.375 11.9298 21.1173 9.1875 24.5 9.1875C27.8827 9.1875 30.625 11.9298 30.625 15.3125ZM24.4998 27.5625C18.3211 27.5625 12.9971 31.222 10.5771 36.4919C13.9467 40.4006 18.9344 42.875 24.4999 42.875C30.0654 42.875 35.053 40.4007 38.4226 36.4921C36.0027 31.2222 30.6786 27.5625 24.4998 27.5625Z" fill="#FFD32E"/>
</svg>
